<?xml version="1.0" encoding="utf-8"?>
<!-- Generator: Adobe Illustrator 25.4.1, SVG Export Plug-In . SVG Version: 6.00 Build 0)  -->
<svg version="1.1" id="Calque_1" xmlns="http://www.w3.org/2000/svg" xmlns:xlink="http://www.w3.org/1999/xlink" x="0px" y="0px"
	 viewBox="0 0 300 300" style="enable-background:new 0 0 300 300;" xml:space="preserve">
<style type="text/css">
	.st0{fill:#B7397B;}
	.st1{fill:#FC4B55;}
	.st2{clip-path:url(#SVGID_00000183944986579347986410000009931560823183415940_);}
	.st3{fill:#FFD6EE;}
	.st4{clip-path:url(#SVGID_00000086689744421694686680000012217186865406943882_);}
	.st5{clip-path:url(#SVGID_00000062895836766949307530000005820850681009363898_);}
	.st6{clip-path:url(#SVGID_00000027582804620951717680000001564051479868920718_);}
	.st7{fill:#1D1D1B;}
	.st8{clip-path:url(#SVGID_00000016795295665174269780000015154413351395892140_);}
	.st9{clip-path:url(#SVGID_00000113312541561461801410000013491677176051315640_);}
</style>
<g>
	<g>
		<g>
			<polygon class="st0" points="187.1,133.4 187.1,160.2 164.1,146.8 			"/>
			<polygon class="st1" points="210.2,120 210.2,146.8 187.1,133.4 			"/>
			<g>
				<g>
					<defs>
						<polygon id="SVGID_1_" points="164.1,146.8 164.1,173.5 141,160.2 						"/>
					</defs>
					<clipPath id="SVGID_00000072274137811290019360000018171015798404407454_">
						<use xlink:href="#SVGID_1_"  style="overflow:visible;"/>
					</clipPath>
					<g style="clip-path:url(#SVGID_00000072274137811290019360000018171015798404407454_);">
						<circle cx="149.7" cy="159" r="2.8"/>
						<circle cx="160.8" cy="159" r="2.8"/>
						<circle cx="160.8" cy="147.9" r="2.8"/>
						<circle cx="160.8" cy="170" r="2.8"/>
						<circle cx="155.2" cy="153.4" r="2.8"/>
						<circle cx="166.3" cy="153.4" r="2.8"/>
						<circle cx="155.2" cy="164.5" r="2.8"/>
						<circle cx="166.3" cy="164.5" r="2.8"/>
						<circle cx="144.1" cy="164.5" r="2.8"/>
					</g>
				</g>
			</g>
			<polygon class="st3" points="187.5,266.7 210.7,253.2 210.7,279.9 			"/>
			<polygon class="st0" points="141.2,240.1 164.3,226.8 164.3,253.4 			"/>
			<g>
				<g>
					<defs>
						<polygon id="SVGID_00000088823139538799908470000005383460272223491497_" points="164.4,253.4 187.5,240 187.5,266.7 						
							"/>
					</defs>
					<clipPath id="SVGID_00000014615378619137322680000014278672029711195036_">
						<use xlink:href="#SVGID_00000088823139538799908470000005383460272223491497_"  style="overflow:visible;"/>
					</clipPath>
					<g style="clip-path:url(#SVGID_00000014615378619137322680000014278672029711195036_);">
						<circle cx="182.1" cy="259.7" r="2.8"/>
						<circle cx="176.5" cy="250.1" r="2.8"/>
						<circle cx="166.9" cy="255.6" r="2.8"/>
						<circle cx="186.1" cy="244.6" r="2.8"/>
						<circle cx="174.5" cy="257.7" r="2.8"/>
						<circle cx="169" cy="248.1" r="2.8"/>
						<circle cx="184.2" cy="252.2" r="2.8"/>
						<circle cx="178.6" cy="242.6" r="2.8"/>
						<circle cx="189.7" cy="261.8" r="2.8"/>
					</g>
				</g>
			</g>
			<polygon class="st0" points="279.9,213.3 256.7,200 279.8,186.8 			"/>
			<polygon class="st1" points="280,240 256.8,226.7 279.9,213.3 			"/>
			<g>
				<g>
					<defs>
						<polygon id="SVGID_00000026843153677431325390000007435122355197822896_" points="279.8,159.9 279.8,186.8 256.8,173.3 						
							"/>
					</defs>
					<clipPath id="SVGID_00000137099158444044099800000003532001397233538749_">
						<use xlink:href="#SVGID_00000026843153677431325390000007435122355197822896_"  style="overflow:visible;"/>
					</clipPath>
					<g style="clip-path:url(#SVGID_00000137099158444044099800000003532001397233538749_);">
						<circle cx="265.4" cy="172.2" r="2.8"/>
						<circle cx="276.5" cy="172.2" r="2.8"/>
						<circle cx="276.5" cy="161.1" r="2.8"/>
						<circle cx="276.5" cy="183.3" r="2.8"/>
						<circle cx="271" cy="166.7" r="2.8"/>
						<circle cx="282.1" cy="166.7" r="2.8"/>
						<circle cx="271" cy="177.7" r="2.8"/>
						<circle cx="282.1" cy="177.7" r="2.8"/>
						<circle cx="259.9" cy="177.7" r="2.8"/>
					</g>
				</g>
			</g>
			<polygon class="st1" points="141.1,213.4 164.3,226.8 141.2,240.1 			"/>
			<polygon class="st3" points="141,160.2 164.2,173.5 141,186.8 			"/>
			<g>
				<g>
					<defs>
						<polygon id="SVGID_00000028302146952464110900000006179135923470809776_" points="141,186.8 164.2,200.2 141.1,213.4 						
							"/>
					</defs>
					<clipPath id="SVGID_00000083047452260548844820000005022274810293226375_">
						<use xlink:href="#SVGID_00000028302146952464110900000006179135923470809776_"  style="overflow:visible;"/>
					</clipPath>
					<g style="clip-path:url(#SVGID_00000083047452260548844820000005022274810293226375_);">
						<rect x="146.2" y="186.8" class="st7" width="3.5" height="26.8"/>
						<rect x="141" y="186.8" class="st7" width="3.5" height="26.8"/>
						<rect x="151.5" y="186.8" class="st7" width="3.5" height="26.8"/>
						<rect x="156.7" y="186.8" class="st7" width="3.5" height="26.8"/>
					</g>
				</g>
			</g>
			<polygon class="st1" points="256.9,253.4 256.9,226.7 280,240 			"/>
			<polygon class="st3" points="210.7,280 210.7,253.2 233.8,266.6 			"/>
			<g>
				<g>
					<defs>
						<polygon id="SVGID_00000155119923417219789160000005937868834697280179_" points="233.8,240 256.9,253.3 233.8,266.6 						
							"/>
					</defs>
					<clipPath id="SVGID_00000079461284153343325900000007396319325679111296_">
						<use xlink:href="#SVGID_00000155119923417219789160000005937868834697280179_"  style="overflow:visible;"/>
					</clipPath>
					<g style="clip-path:url(#SVGID_00000079461284153343325900000007396319325679111296_);">
						<rect x="238.9" y="240" class="st7" width="3.5" height="26.8"/>
						<rect x="233.7" y="240" class="st7" width="3.5" height="26.8"/>
						<rect x="244.2" y="240" class="st7" width="3.5" height="26.8"/>
						<rect x="249.4" y="240" class="st7" width="3.5" height="26.8"/>
					</g>
				</g>
			</g>
			<polygon class="st1" points="256.4,146.7 233.3,160 233.3,133.3 			"/>
			<polygon class="st3" points="279.8,159.9 256.7,173.3 256.4,146.7 			"/>
			<g>
				<g>
					<defs>
						<polygon id="SVGID_00000134950928640362860950000002809954355610858425_" points="210.2,120 233.3,133.4 210.2,146.7 						
							"/>
					</defs>
					<clipPath id="SVGID_00000153704521757542133990000000394159075817146030_">
						<use xlink:href="#SVGID_00000134950928640362860950000002809954355610858425_"  style="overflow:visible;"/>
					</clipPath>
					<g style="clip-path:url(#SVGID_00000153704521757542133990000000394159075817146030_);">
						<rect x="215.4" y="120" class="st7" width="3.5" height="26.8"/>
						<rect x="210.1" y="120" class="st7" width="3.5" height="26.8"/>
						<rect x="220.6" y="120" class="st7" width="3.5" height="26.8"/>
						<rect x="225.9" y="120" class="st7" width="3.5" height="26.8"/>
					</g>
				</g>
			</g>
		</g>
		<g>
			<g>
				<path d="M201.7,169.8c-0.2-0.2-0.3-0.4-0.3-0.6V161c0-0.3,0.1-0.4,0.3-0.6c0.2-0.2,0.4-0.3,0.6-0.3c0.3,0,0.5,0.1,0.6,0.3
					c0.2,0.2,0.3,0.4,0.3,0.6v7.6h3.9c0.5,0,0.8,0.3,0.8,0.7c0,0.5-0.3,0.7-0.8,0.7h-4.9C202,170,201.8,169.9,201.7,169.8z"/>
				<path d="M219.6,169.2c0,0.2-0.1,0.4-0.3,0.5c-0.2,0.2-0.4,0.3-0.6,0.3c-0.2,0-0.3,0-0.4-0.1c-0.2-0.1-0.3-0.2-0.3-0.4l-0.8-1.9
					h-4.9l-0.8,1.9c-0.1,0.2-0.2,0.3-0.3,0.4c-0.1,0.1-0.3,0.1-0.4,0.1c-0.2,0-0.4-0.1-0.6-0.3s-0.3-0.4-0.3-0.5
					c0-0.1,0-0.3,0.1-0.4l3.8-8.3c0.1-0.2,0.2-0.4,0.4-0.4s0.4-0.2,0.5-0.2c0.2,0,0.4,0.1,0.5,0.2c0.2,0.1,0.3,0.3,0.4,0.4l3.9,8.3
					C219.6,169.1,219.6,169.2,219.6,169.2z M212.8,166.3h3.7l-1.9-4.2L212.8,166.3z"/>
			</g>
			<g>
				<path d="M186.9,228.5c-0.3-0.3-0.4-0.5-0.4-1v-11.7c0-0.4,0.1-0.7,0.4-0.9c0.3-0.3,0.5-0.4,0.9-0.4c0.4,0,0.7,0.1,1,0.4
					c0.3,0.3,0.4,0.5,0.4,0.9v11.7c0,0.4-0.1,0.7-0.4,1c-0.3,0.3-0.5,0.4-1,0.4C187.5,228.9,187.2,228.7,186.9,228.5z"/>
				<path d="M194.5,228.4c-0.2-0.2-0.4-0.5-0.4-0.9v-11.6c0-0.4,0.1-0.7,0.4-0.9c0.2-0.2,0.5-0.4,0.9-0.4h3.9c2.3,0,4.1,0.6,5.3,1.9
					s1.9,2.9,1.9,5.2c0,2.2-0.6,4-1.9,5.2c-1.2,1.2-3,1.9-5.3,1.9h-3.9C195,228.7,194.8,228.6,194.5,228.4z M204.1,221.7
					c0-3.3-1.6-4.9-4.9-4.9h-2.5v9.9h2.5C202.5,226.7,204.1,225,204.1,221.7z"/>
				<path d="M211.6,228.4c-0.2-0.2-0.4-0.5-0.4-0.9v-11.6c0-0.4,0.1-0.7,0.4-0.9c0.2-0.2,0.5-0.4,0.9-0.4h7.2c0.4,0,0.7,0.1,0.9,0.3
					c0.2,0.2,0.4,0.4,0.4,0.7c0,0.4-0.1,0.6-0.4,0.8c-0.2,0.2-0.5,0.3-0.9,0.3h-6v3.9h5.5c0.4,0,0.7,0.1,0.9,0.3
					c0.2,0.2,0.4,0.4,0.4,0.8s-0.1,0.5-0.4,0.7c-0.2,0.2-0.5,0.3-0.9,0.3h-5.5v4.1h6c0.4,0,0.7,0.1,0.9,0.3s0.4,0.4,0.4,0.8
					c0,0.4-0.1,0.5-0.4,0.7c-0.2,0.2-0.5,0.3-0.9,0.3h-7.2C212.1,228.7,211.8,228.6,211.6,228.4z"/>
				<path d="M225.3,228.4c-0.2-0.2-0.4-0.5-0.4-0.9v-11.7c0-0.4,0.1-0.7,0.4-0.9c0.3-0.3,0.5-0.4,0.9-0.4c0.4,0,0.7,0.1,1,0.4
					c0.3,0.3,0.4,0.5,0.4,0.9v10.8h5.6c0.8,0,1.2,0.4,1.2,1.1c0,0.7-0.4,1.1-1.2,1.1h-6.9C225.9,228.7,225.5,228.6,225.3,228.4z"/>
			</g>
			<g>
				<path d="M215.4,207.5c0,0.2-0.1,0.4-0.3,0.5s-0.4,0.3-0.6,0.3c-0.2,0-0.3,0-0.4-0.1c-0.1-0.1-0.3-0.2-0.3-0.4L213,206h-4.9
					l-0.8,1.9c-0.1,0.2-0.2,0.3-0.3,0.4c-0.1,0.1-0.3,0.1-0.4,0.1s-0.4-0.1-0.6-0.3c-0.2-0.2-0.3-0.4-0.3-0.5c0-0.1,0-0.3,0.1-0.4
					l3.8-8.3c0.1-0.2,0.2-0.4,0.4-0.4c0.2-0.1,0.4-0.2,0.5-0.2c0.2,0,0.4,0.1,0.5,0.2c0.2,0.1,0.3,0.3,0.4,0.4l3.9,8.3
					C215.4,207.2,215.4,207.4,215.4,207.5z M208.2,195.9c0-0.2,0.1-0.4,0.2-0.4c0.1-0.2,0.3-0.2,0.4-0.2c0.2,0,0.4,0.1,0.6,0.3
					l1.2,1.3c0.1,0.1,0.2,0.2,0.2,0.3s0,0.2-0.1,0.3c-0.1,0.1-0.2,0.1-0.3,0.1c-0.1,0-0.2,0-0.3-0.1l-1.6-0.9
					C208.4,196.4,208.2,196.2,208.2,195.9z M208.6,204.4h3.7l-1.9-4.2L208.6,204.4z"/>
			</g>
			<g>
				<path d="M188.4,185.2c0.4,0.6,0.7,1.3,0.7,2.2c0,1.2-0.4,2.1-1.3,2.8c-0.9,0.7-2,1.1-3.6,1.1H179c-0.4,0-0.7-0.1-0.9-0.4
					c-0.2-0.2-0.4-0.5-0.4-0.9v-11.7c0-0.4,0.1-0.7,0.4-0.9c0.3-0.2,0.5-0.4,0.9-0.4h5c1.5,0,2.7,0.4,3.5,1s1.2,1.6,1.2,2.8
					c0,0.7-0.2,1.4-0.6,2c-0.4,0.5-1,1-1.6,1.2C187.4,184.2,188,184.5,188.4,185.2z M180.4,183h3.3c1.8,0,2.7-0.6,2.7-2
					c0-0.7-0.2-1.2-0.6-1.5c-0.4-0.4-1.2-0.4-2-0.4h-3.3V183z M186,188.7c0.4-0.4,0.6-0.9,0.6-1.6s-0.2-1.2-0.6-1.6
					c-0.4-0.4-1.2-0.5-2-0.5h-3.6v4.2h3.6C185,189.2,185.6,189.1,186,188.7z"/>
				<path d="M196.4,190.6c-1-0.6-1.8-1.4-2.3-2.6c-0.5-1.1-0.8-2.4-0.8-3.9s0.3-2.8,0.8-3.8c0.5-1.1,1.3-2,2.3-2.5
					c1-0.6,2.2-0.9,3.6-0.9s2.6,0.3,3.6,0.9c1,0.6,1.8,1.4,2.3,2.5c0.5,1.1,0.8,2.4,0.8,3.8c0,1.5-0.3,2.8-0.8,3.9
					c-0.5,1.1-1.3,2-2.3,2.6s-2.2,0.9-3.6,0.9C198.6,191.5,197.3,191.1,196.4,190.6z M203,188c0.7-0.9,1.1-2.2,1.1-3.9
					s-0.4-2.9-1.1-3.8c-0.7-0.9-1.8-1.3-3-1.3c-1.3,0-2.3,0.4-3.1,1.3c-0.7,0.9-1.1,2.2-1.1,3.8c0,1.7,0.4,2.9,1.1,3.9
					c0.7,0.9,1.8,1.3,3.1,1.3C201.2,189.3,202.2,188.9,203,188z"/>
				<g>
					<path d="M210.5,180.2c-0.2,0-0.4-0.1-0.5-0.3c-0.2-0.2-0.3-0.4-0.3-0.5c0-0.3,0.1-0.4,0.4-0.6l1.7-1.5c0.3-0.3,0.6-0.4,0.9-0.4
						c0.4,0,0.6,0.1,0.9,0.4l1.7,1.5c0.2,0.2,0.3,0.4,0.3,0.6c0,0.2-0.1,0.4-0.2,0.5c-0.2,0.2-0.4,0.2-0.5,0.2
						c-0.3,0-0.4-0.1-0.6-0.3l-1.5-1.5l-1.5,1.5C210.9,180.1,210.8,180.2,210.5,180.2z"/>
					<path d="M211.7,191.1c-0.3-0.2-0.4-0.4-0.4-0.6v-8.2c0-0.3,0.1-0.4,0.4-0.6c0.3-0.2,0.5-0.3,1-0.3s0.7,0.1,1,0.3
						c0.3,0.2,0.4,0.4,0.4,0.6v8.2c0,0.3-0.1,0.5-0.4,0.6c-0.3,0.2-0.5,0.3-1,0.3S211.9,191.3,211.7,191.1z"/>
				</g>
				<path d="M222.8,191c-0.3-0.3-0.4-0.5-0.4-1v-10.9h-3.6c-0.8,0-1.2-0.4-1.2-1.1s0.4-1.1,1.2-1.1h10c0.8,0,1.2,0.4,1.2,1.1
					c0,0.7-0.4,1.1-1.2,1.1h-3.6V190c0,0.4-0.1,0.7-0.4,1c-0.3,0.3-0.5,0.4-1,0.4S222.9,191.3,222.8,191z"/>
				<path d="M233.7,190.9c-0.3-0.2-0.4-0.5-0.4-0.9v-11.7c0-0.4,0.1-0.7,0.4-0.9c0.2-0.2,0.5-0.4,0.9-0.4h7.3c0.4,0,0.7,0.1,0.9,0.3
					c0.2,0.2,0.4,0.4,0.4,0.7c0,0.4-0.1,0.6-0.4,0.8c-0.3,0.2-0.5,0.3-0.9,0.3h-6v3.9h5.6c0.4,0,0.7,0.1,0.9,0.3
					c0.2,0.2,0.4,0.4,0.4,0.8s-0.1,0.5-0.4,0.7c-0.2,0.2-0.5,0.3-0.9,0.3h-5.6v4.2h6c0.4,0,0.7,0.1,0.9,0.3c0.2,0.2,0.4,0.4,0.4,0.8
					c0,0.4-0.1,0.5-0.4,0.7c-0.2,0.2-0.5,0.3-0.9,0.3h-7.3C234.2,191.3,234,191.2,233.7,190.9z"/>
			</g>
		</g>
	</g>
	<g>
		<g>
			<circle cx="177.2" cy="202.9" r="0.6"/>
			<circle cx="179.5" cy="202.9" r="0.6"/>
			<circle cx="181.8" cy="202.9" r="0.6"/>
			<circle cx="184.2" cy="202.9" r="0.6"/>
			<circle cx="186.5" cy="202.9" r="0.6"/>
			<circle cx="188.8" cy="202.9" r="0.6"/>
			<circle cx="191.1" cy="202.9" r="0.6"/>
			<circle cx="193.5" cy="202.9" r="0.6"/>
			<circle cx="195.8" cy="202.9" r="0.6"/>
			<circle cx="198.1" cy="202.9" r="0.6"/>
		</g>
		<g>
			<circle cx="222.8" cy="202.9" r="0.6"/>
			<circle cx="225.2" cy="202.9" r="0.6"/>
			<circle cx="227.5" cy="202.9" r="0.6"/>
			<circle cx="229.9" cy="202.9" r="0.6"/>
			<circle cx="232.2" cy="202.9" r="0.6"/>
			<circle cx="234.5" cy="202.9" r="0.6"/>
			<circle cx="236.8" cy="202.9" r="0.6"/>
			<circle cx="239.2" cy="202.9" r="0.6"/>
			<circle cx="241.5" cy="202.9" r="0.6"/>
			<circle cx="243.8" cy="202.9" r="0.6"/>
		</g>
	</g>
</g>
<g>
	<path class="st1" d="M103.1,30.5c0,5.8-4.7,10.5-10.5,10.5c-5.8,0-10.5-4.7-10.5-10.5c0-5.8,4.7-10.5,10.5-10.5
		C98.4,20,103.1,24.7,103.1,30.5"/>
	<polygon class="st1" points="84.1,70.5 69.2,100 20,20 53,20 	"/>
</g>
</svg>
