<?xml version="1.0" encoding="utf-8"?>
<!-- Generator: Adobe Illustrator 25.4.1, SVG Export Plug-In . SVG Version: 6.00 Build 0)  -->
<svg version="1.1" id="Calque_1" xmlns="http://www.w3.org/2000/svg" xmlns:xlink="http://www.w3.org/1999/xlink" x="0px" y="0px"
	 viewBox="0 0 300 300" style="enable-background:new 0 0 300 300;" xml:space="preserve">
<style type="text/css">
	.st0{fill:#D43B71;}
	.st1{fill:#009DDF;}
	.st2{fill:#3D3D3F;}
</style>
<g>
	<path class="st0" d="M103.1,30.5c0,5.8-4.7,10.5-10.5,10.5s-10.5-4.7-10.5-10.5S86.8,20,92.6,20S103.1,24.7,103.1,30.5"/>
	<polygon class="st0" points="84.1,70.5 69.2,100 20,20 53,20 	"/>
</g>
<g>
	<path class="st1" d="M222.2,178.1c0,3.2-2.6,5.8-5.8,5.8s-5.8-2.6-5.8-5.8s2.6-5.8,5.8-5.8C219.6,172.3,222.2,174.9,222.2,178.1
		 M211.7,200.4l-8.3,16.4l-27.3-44.5h18.3L211.7,200.4z M240.3,188.1c0-22.1-17.9-40-40-40s-40,17.9-40,40s17.9,40,40,40
		S240.3,210.2,240.3,188.1"/>
</g>
<g>
	<path class="st2" d="M147.8,249.6l-10.9,30h-5.5l-10.9-30h5.5l8.2,23.8l8.1-23.8L147.8,249.6L147.8,249.6z"/>
	<path class="st2" d="M171.9,254v8.3h10.7v4.5h-10.7v8.3h12.3v4.5H167v-30h17.2v4.5L171.9,254L171.9,254z"/>
	<path class="st2" d="M235.8,263.4v1.2c0,8.5-6.9,15.4-15.4,15.4c-8.6,0-15.4-6.9-15.4-15.4s6.9-15.4,15.4-15.4
		c5.8,0,10.9,3.3,13.5,8.1l-4.2,2.2c-1.8-3.3-5.2-5.5-9.3-5.5c-6,0-10.6,4.6-10.6,10.6s4.7,10.6,10.6,10.6c4.9,0,9-3.2,10.2-7.7
		h-10.2v-4.1L235.8,263.4L235.8,263.4z"/>
	<path class="st2" d="M272.5,273.2h-12.3l-2.2,6.4h-5.3l10.9-30h5.5l10.9,30h-5.3L272.5,273.2z M271.1,268.9l-4.7-14l-4.7,14H271.1z
		"/>
</g>
</svg>
