<?xml version="1.0" encoding="utf-8"?>
<!-- Generator: Adobe Illustrator 25.4.1, SVG Export Plug-In . SVG Version: 6.00 Build 0)  -->
<svg version="1.1" id="Calque_1" xmlns="http://www.w3.org/2000/svg" xmlns:xlink="http://www.w3.org/1999/xlink" x="0px" y="0px"
	 viewBox="0 0 300 300" style="enable-background:new 0 0 300 300;" xml:space="preserve">
<style type="text/css">
	.st0{fill:#285873;}
	.st1{fill:#FE6861;}
</style>
<g>
	<path class="st0" d="M232.9,131h-43.3c-1.5,0-2.8-1.2-2.8-2.8v-5.5c0-1.5,1.2-2.8,2.8-2.8h43.3c1.5,0,2.8,1.2,2.8,2.8v5.5
		C235.6,129.8,234.4,131,232.9,131z"/>
	<path class="st0" d="M280,211.3c0,38-30.8,68.7-68.7,68.7s-68.7-30.8-68.7-68.7s30.8-68.7,68.7-68.7S280,173.2,280,211.3z
		 M211.3,153.6c-31.9,0-57.6,25.9-57.6,57.6s25.9,57.6,57.6,57.6s57.6-25.9,57.6-57.6S243.2,153.6,211.3,153.6z"/>
	<path class="st1" d="M203.4,213.8l-15.1-15.1c-1.9-1.9-1.9-5.2,0-7l0.9-0.9c1.9-1.9,5.2-1.9,7,0l11.7,11.7l2.5,2.5l60.2-60.1
		c1.9-1.9,5.2-1.9,7,0l0.9,0.9c1.9,1.9,1.9,5.2,0,7L214,217.2c-1.9,1.9-5.2,1.9-7,0l-0.9-0.9L203.4,213.8z"/>
</g>
<g>
	<path class="st0" d="M103.1,30.5c0,5.8-4.7,10.5-10.5,10.5c-5.8,0-10.5-4.7-10.5-10.5c0-5.8,4.7-10.5,10.5-10.5
		C98.4,20,103.1,24.7,103.1,30.5"/>
	<polygon class="st0" points="84.1,70.5 69.2,100 20,20 53,20 	"/>
</g>
</svg>
