<?xml version="1.0" encoding="utf-8"?>
<!-- Generator: Adobe Illustrator 25.4.1, SVG Export Plug-In . SVG Version: 6.00 Build 0)  -->
<svg version="1.1" id="Calque_1" xmlns="http://www.w3.org/2000/svg" xmlns:xlink="http://www.w3.org/1999/xlink" x="0px" y="0px"
	 viewBox="0 0 300 300" style="enable-background:new 0 0 300 300;" xml:space="preserve">
<style type="text/css">
	.st0{fill:#00ADEF;}
	.st1{fill:#009DDF;}
	.st2{fill:#3D3D3F;}
</style>
<g>
	<path class="st0" d="M103.1,30.5c0,5.8-4.7,10.5-10.5,10.5s-10.5-4.7-10.5-10.5S86.8,20,92.6,20S103.1,24.7,103.1,30.5"/>
	<polygon class="st0" points="84.1,70.5 69.2,100 20,20 53,20 	"/>
</g>
<g>
	<path class="st1" d="M217.3,152.8c0,3.2-2.6,5.8-5.8,5.8s-5.8-2.6-5.8-5.8s2.6-5.8,5.8-5.8S217.3,149.6,217.3,152.8 M206.8,175.1
		l-8.3,16.4L171.1,147h18.3L206.8,175.1z M235.4,162.8c0-22.1-17.9-40-40-40s-40,17.9-40,40s17.9,40,40,40S235.4,184.9,235.4,162.8"
		/>
</g>
<g>
	<path class="st2" d="M114.3,227.9v5.8h7.5v3.2h-7.5v9h-3.5v-21.1h12.1v3.1H114.3z"/>
	<path class="st2" d="M124.9,235.4c0-6,4.9-10.8,10.8-10.8s10.8,4.9,10.8,10.8c0,6-4.9,10.8-10.8,10.8S124.9,241.3,124.9,235.4z
		 M143.2,235.4c0-4.2-3.2-7.4-7.4-7.4s-7.4,3.2-7.4,7.4s3.3,7.4,7.4,7.4C139.9,242.8,143.2,239.5,143.2,235.4z"/>
	<path class="st2" d="M166.3,245.9h-3.9l-5.6-8.9h-2.9v8.9h-3.5v-21.1h8.3c3.4,0,6.1,2.7,6.1,6.2c0,2.9-1.9,5.2-4.6,5.7L166.3,245.9
		z M158.3,234.1c1.8,0,3.1-1.2,3.1-3s-1.3-3-3.1-3h-4.4v6.1h4.4V234.1z"/>
	<path class="st2" d="M190.8,224.8v21.1h-3.4v-14.6l-6.5,14.6h-2.3l-6.5-14.5v14.5h-3.5v-21.1h3.7l7.4,16.5l7.4-16.5H190.8z"/>
	<path class="st2" d="M206.8,241.4h-8.6l-1.5,4.5H193l7.6-21.1h3.8l7.6,21.1h-3.7L206.8,241.4z M205.8,238.4l-3.3-9.9l-3.3,9.9
		H205.8z"/>
	<path class="st2" d="M225.9,228h-5.6v17.9h-3.4V228h-5.6v-3.2h14.6V228z"/>
	<path class="st2" d="M228.5,224.8h3.5v21.1h-3.5V224.8z"/>
	<path class="st2" d="M235.9,235.4c0-6,4.9-10.8,10.8-10.8c6,0,10.8,4.9,10.8,10.8c0,6-4.9,10.8-10.8,10.8
		C240.7,246.2,235.9,241.3,235.9,235.4z M254.2,235.4c0-4.2-3.2-7.4-7.4-7.4s-7.4,3.2-7.4,7.4s3.3,7.4,7.4,7.4
		C250.9,242.8,254.2,239.5,254.2,235.4z"/>
	<path class="st2" d="M280,224.8v21.1h-3.5l-11.7-15.7v15.7h-3.5v-21.1h3.5l11.7,15.7v-15.7H280z"/>
</g>
<g>
	<path class="st2" d="M158.4,258.6l-7.6,21.1H147l-7.6-21.1h3.8l5.7,16.8l5.7-16.8H158.4z"/>
	<path class="st2" d="M175.4,261.7v5.8h7.5v3.2h-7.5v5.8h8.7v3.1H172v-21.1h12v3.1h-8.6V261.7z"/>
	<path class="st2" d="M220.4,268.3v0.8c0,6-4.9,10.8-10.8,10.8c-6,0-10.8-4.9-10.8-10.8c0-6,4.8-10.8,10.8-10.8
		c4.1,0,7.7,2.3,9.5,5.7l-3,1.6c-1.3-2.3-3.7-3.8-6.5-3.8c-4.2,0-7.5,3.2-7.5,7.4c0,4.2,3.3,7.4,7.5,7.4c3.5,0,6.3-2.2,7.1-5.4h-7.2
		v-2.9L220.4,268.3L220.4,268.3z"/>
	<path class="st2" d="M246.3,275.2h-8.6l-1.5,4.5h-3.7l7.6-21.1h3.8l7.6,21.1h-3.7L246.3,275.2z M245.3,272.2l-3.3-9.9l-3.3,9.9
		H245.3z"/>
</g>
</svg>
