<?xml version="1.0" encoding="utf-8"?>
<!-- Generator: Adobe Illustrator 25.4.1, SVG Export Plug-In . SVG Version: 6.00 Build 0)  -->
<svg version="1.1" id="Calque_1" xmlns="http://www.w3.org/2000/svg" xmlns:xlink="http://www.w3.org/1999/xlink" x="0px" y="0px"
	 viewBox="0 0 300 300" style="enable-background:new 0 0 300 300;" xml:space="preserve">
<style type="text/css">
	.st0{fill:#FE6861;}
	.st1{fill:#009DDF;}
	.st2{fill:#3D3D3F;}
</style>
<g>
	<path class="st0" d="M103.1,30.5c0,5.8-4.7,10.5-10.5,10.5s-10.5-4.7-10.5-10.5S86.8,20,92.6,20S103.1,24.7,103.1,30.5"/>
	<polygon class="st0" points="84.1,70.5 69.2,100 20,20 53,20 	"/>
</g>
<g>
	<g>
		<path class="st1" d="M224.4,142.5c0,3.2-2.6,5.8-5.8,5.8s-5.8-2.6-5.8-5.8s2.6-5.8,5.8-5.8C221.8,136.7,224.4,139.3,224.4,142.5
			 M213.9,164.8l-8.3,16.4l-27.3-44.5h18.3L213.9,164.8z M242.5,152.5c0-22.1-17.9-40-40-40s-40,17.9-40,40s17.9,40,40,40
			S242.5,174.6,242.5,152.5"/>
	</g>
	<path class="st2" d="M129.5,216.4v6h7.8v3.3h-7.8v9.3h-3.6v-21.9h12.5v3.2L129.5,216.4L129.5,216.4z"/>
	<path class="st2" d="M152.1,224.1c0-6.2,5-11.2,11.2-11.2s11.2,5,11.2,11.2s-5,11.2-11.2,11.2S152.1,230.3,152.1,224.1z
		 M171.1,224.1c0-4.3-3.4-7.7-7.7-7.7s-7.7,3.4-7.7,7.7s3.4,7.7,7.7,7.7C167.7,231.8,171.1,228.4,171.1,224.1z"/>
	<path class="st2" d="M206.6,235h-4l-5.8-9.2h-3v9.2h-3.6v-21.9h8.6c3.5,0,6.3,2.8,6.3,6.4c0,3-2,5.4-4.7,5.9L206.6,235z
		 M198.3,222.7c1.9,0,3.2-1.3,3.2-3.1c0-1.9-1.4-3.1-3.2-3.1h-4.6v6.3L198.3,222.7L198.3,222.7z"/>
	<path class="st2" d="M220.6,227.9v-14.8h3.6v14.1c0,2.7,2.1,4.7,5.1,4.7s5.1-2,5.1-4.7v-14.1h3.6v14.8c0,4.2-3.7,7.4-8.7,7.4
		S220.6,232.1,220.6,227.9z"/>
	<path class="st2" d="M277.2,213.2V235h-3.5v-15.1l-6.8,15.1h-2.4l-6.7-15v15h-3.6v-21.9h3.8l7.7,17.1l7.7-17.1L277.2,213.2
		L277.2,213.2z"/>
	<path class="st2" d="M140.7,274.1c0,3.6-2.8,5.9-6.2,5.9H125v-21.9h8.6c3.5,0,6.3,2.3,6.3,5.9c0,2.3-1.1,4-2.9,4.8
		C139.2,269.7,140.7,271.5,140.7,274.1z M133.2,261.5h-4.7v6h4.7c1.7,0,3.1-1.3,3.1-3.1C136.4,262.7,134.9,261.5,133.2,261.5z
		 M137.1,273.7c0-1.7-1.4-3.1-3.2-3.1h-5.4v6h5.4C135.7,276.7,137.1,275.4,137.1,273.7z"/>
	<path class="st2" d="M152.9,258.1h6.6c6,0,10.9,4.9,10.9,10.9s-4.9,10.9-10.9,10.9h-6.6V258.1z M159.4,276.7c4.2,0,7.4-3.2,7.4-7.6
		s-3.2-7.6-7.4-7.6h-3v15.2H159.4z"/>
	<path class="st2" d="M187.5,269.7h-1.2V280h-3.6v-21.9h3.6v8.3h1.2l7.9-8.3h4.7l-9.7,9.9l10.4,12H196L187.5,269.7z"/>
	<path class="st2" d="M223,275.4h-8.9l-1.6,4.6h-3.9l7.9-21.9h4l7.9,21.9h-3.9L223,275.4z M222,272.2l-3.4-10.2l-3.4,10.2H222z"/>
	<path class="st2" d="M253.9,264.5c0,3.5-2.8,6.2-6.3,6.2h-5v9.3H239v-21.9h8.6C251.1,258.1,253.9,261,253.9,264.5z M250.4,264.5
		c0-1.9-1.4-3.1-3.3-3.1h-4.5v6.2h4.5C249,267.6,250.4,266.4,250.4,264.5z"/>
	<path class="st2" d="M280,264.5c0,3.5-2.8,6.2-6.3,6.2h-5v9.3h-3.6v-21.9h8.6C277.2,258.1,280,261,280,264.5z M276.5,264.5
		c0-1.9-1.4-3.1-3.3-3.1h-4.5v6.2h4.5C275.1,267.6,276.5,266.4,276.5,264.5z"/>
</g>
</svg>
