<?xml version="1.0" encoding="utf-8"?>
<!-- Generator: Adobe Illustrator 25.4.1, SVG Export Plug-In . SVG Version: 6.00 Build 0)  -->
<svg version="1.1" id="Calque_1" xmlns="http://www.w3.org/2000/svg" xmlns:xlink="http://www.w3.org/1999/xlink" x="0px" y="0px"
	 viewBox="0 0 300 300" style="enable-background:new 0 0 300 300;" xml:space="preserve">
<style type="text/css">
	.st0{fill:#62429C;}
	.st1{fill:#009DDF;}
	.st2{fill:#3D3D3F;}
</style>
<g>
	<path class="st0" d="M103.1,30.5c0,5.8-4.7,10.5-10.5,10.5s-10.5-4.7-10.5-10.5S86.8,20,92.6,20S103.1,24.7,103.1,30.5"/>
	<polygon class="st0" points="84.1,70.5 69.2,100 20,20 53,20 	"/>
</g>
<g>
	<g>
		<path class="st1" d="M234.4,145.1c0,3.2-2.6,5.8-5.8,5.8s-5.8-2.6-5.8-5.8s2.6-5.8,5.8-5.8C231.8,139.3,234.4,141.9,234.4,145.1
			 M223.9,167.4l-8.3,16.4l-27.3-44.5h18.3L223.9,167.4z M252.5,155.1c0-22.1-17.9-40-40-40s-40,17.9-40,40s17.9,40,40,40
			S252.5,177.2,252.5,155.1"/>
	</g>
	<g>
		<path class="st2" d="M149,220.5v6.7h8.6v3.6H149v10.3h-3.9v-24.1h13.8v3.6L149,220.5L149,220.5z"/>
		<path class="st2" d="M167.4,229c0-6.8,5.6-12.4,12.4-12.4c6.8,0,12.4,5.6,12.4,12.4c0,6.8-5.6,12.4-12.4,12.4
			C173,241.4,167.4,235.8,167.4,229z M188.3,229c0-4.8-3.7-8.5-8.4-8.5s-8.5,3.7-8.5,8.5s3.8,8.5,8.5,8.5
			C184.6,237.4,188.3,233.7,188.3,229z"/>
		<path class="st2" d="M218.8,241.1h-4.4l-6.4-10.1h-3.4v10.1h-3.9v-24.1h9.5c3.9,0,7,3.1,7,7.1c0,3.2-2.3,6-5.2,6.6L218.8,241.1z
			 M209.7,227.5c2.1,0,3.6-1.4,3.6-3.5c0-2-1.5-3.5-3.6-3.5h-5v6.9H209.7z"/>
		<path class="st2" d="M225.9,233.2v-16.3h3.9v15.7c0,3,2.4,5.2,5.6,5.2s5.6-2.3,5.6-5.2v-15.6h3.9v16.3c0,4.7-4.1,8.2-9.6,8.2
			S225.9,237.8,225.9,233.2z"/>
		<path class="st2" d="M280,216.9v24.1h-3.9v-16.7l-7.5,16.7h-2.6l-7.4-16.7v16.7h-3.9v-24.1h4.3l8.4,18.9l8.5-18.9H280z"/>
	</g>
	<g>
		<path class="st2" d="M170.3,255.5l-8.8,24.1h-4.4l-8.8-24.1h4.4l6.6,19.1l6.5-19.1L170.3,255.5L170.3,255.5z"/>
		<path class="st2" d="M189.7,259.1v6.7h8.6v3.6h-8.6v6.7h9.9v3.6h-13.8v-24.1h13.8v3.6L189.7,259.1L189.7,259.1z"/>
		<path class="st2" d="M241.1,266.6v1c0,6.8-5.6,12.4-12.4,12.4c-6.9,0-12.4-5.6-12.4-12.4s5.6-12.4,12.4-12.4
			c4.7,0,8.8,2.7,10.9,6.5l-3.4,1.8c-1.4-2.7-4.2-4.4-7.5-4.4c-4.8,0-8.5,3.7-8.5,8.5c0,4.8,3.8,8.5,8.5,8.5c3.9,0,7.2-2.6,8.2-6.2
			h-8.2v-3.3H241.1L241.1,266.6z"/>
		<path class="st2" d="M270.7,274.5h-9.9l-1.8,5.1h-4.3l8.8-24.1h4.4l8.8,24.1h-4.3L270.7,274.5z M269.5,271.1l-3.8-11.3l-3.8,11.3
			H269.5z"/>
	</g>
</g>
</svg>
